<?xml version="1.0" encoding="utf-8"?>
<!-- Generator: Adobe Illustrator 22.0.1, SVG Export Plug-In . SVG Version: 6.00 Build 0)  -->
<svg version="1.2" baseProfile="tiny" id="Layer_1" xmlns="http://www.w3.org/2000/svg" xmlns:xlink="http://www.w3.org/1999/xlink"
	 x="0px" y="0px" viewBox="0 0 180 46.08" xml:space="preserve">
<g>
	<path d="M7.436,44.51C4.281,43.459,1.802,42.096,0,40.422l2.382-5.021c1.717,1.545,3.916,2.801,6.599,3.766
		c2.681,0.966,5.44,1.449,8.272,1.449c3.734,0,6.524-0.633,8.369-1.9c1.845-1.266,2.768-2.95,2.768-5.053
		c0-1.546-0.505-2.801-1.513-3.766c-1.008-0.966-2.252-1.706-3.734-2.221c-1.48-0.515-3.573-1.094-6.277-1.738
		c-3.391-0.815-6.127-1.631-8.208-2.446c-2.083-0.815-3.863-2.07-5.343-3.766c-1.481-1.695-2.221-3.98-2.221-6.856
		c0-2.403,0.633-4.571,1.9-6.502C4.259,4.435,6.18,2.89,8.755,1.731c2.575-1.159,5.772-1.739,9.592-1.739
		c2.66,0,5.279,0.344,7.854,1.03c2.575,0.687,4.785,1.674,6.631,2.961l-2.124,5.15c-1.889-1.201-3.906-2.114-6.052-2.736
		c-2.146-0.622-4.249-0.933-6.309-0.933c-3.649,0-6.385,0.666-8.208,1.996c-1.824,1.331-2.736,3.048-2.736,5.15
		c0,1.545,0.516,2.8,1.545,3.766c1.03,0.966,2.307,1.717,3.831,2.253c1.523,0.537,3.594,1.105,6.213,1.706
		c3.39,0.816,6.115,1.631,8.176,2.447c2.06,0.815,3.83,2.06,5.311,3.734c1.48,1.674,2.221,3.927,2.221,6.76
		c0,2.36-0.644,4.517-1.931,6.47c-1.288,1.953-3.241,3.498-5.858,4.635c-2.618,1.138-5.837,1.706-9.657,1.706
		C13.862,46.087,10.59,45.563,7.436,44.51z"/>
	<path d="M122.77,0.508h18.991c4.764,0,8.99,0.944,12.682,2.833c3.69,1.889,6.556,4.539,8.594,7.951
		c2.038,3.412,3.058,7.329,3.058,11.749c0,4.421-1.02,8.337-3.058,11.749c-2.038,3.412-4.904,6.062-8.594,7.95
		c-3.692,1.889-7.918,2.833-12.682,2.833H122.77V0.508z M141.374,39.972c3.647,0,6.856-0.708,9.624-2.125
		c2.768-1.416,4.903-3.4,6.405-5.954c1.502-2.553,2.253-5.504,2.253-8.852c0-3.348-0.751-6.298-2.253-8.852
		c-1.502-2.553-3.637-4.538-6.405-5.955c-2.768-1.417-5.977-2.125-9.624-2.125h-12.168v33.863H141.374z"/>
	<path d="M73.284,0.508h18.991c4.764,0,8.99,0.944,12.682,2.833c3.69,1.889,6.556,4.539,8.594,7.951
		c2.038,3.412,3.058,7.329,3.058,11.749c0,4.421-1.02,8.337-3.058,11.749c-2.038,3.412-4.904,6.062-8.594,7.95
		c-3.692,1.889-7.918,2.833-12.682,2.833H73.284V0.508z M91.889,39.972c3.647,0,6.856-0.708,9.624-2.125
		c2.768-1.416,4.903-3.4,6.405-5.954c1.502-2.553,2.253-5.504,2.253-8.852c0-3.348-0.751-6.298-2.253-8.852
		c-1.502-2.553-3.637-4.538-6.405-5.955c-2.768-1.417-5.977-2.125-9.624-2.125H79.721v33.863H91.889z"/>
	<rect x="42.841" y="0.508" width="22.439" height="5.601"/>
	<rect x="42.841" y="20.24" width="22.439" height="5.601"/>
	<rect x="42.841" y="39.972" width="22.439" height="5.601"/>
	<path d="M173.563,0.508H180v45.064h-6.437V0.508z"/>
</g>
</svg>
